<svg width="432.33505859375px" height="140.01999511718748px" xmlns="http://www.w3.org/2000/svg" viewBox="33.83247070312501 4.990002441406261 432.33505859375 140.01999511718748" style="background: rgb(253, 253, 253);" preserveAspectRatio="xMidYMid"><defs><filter id="editing-extrude-glow"><feFlood flood-color="#bbcedd" result="flood-1"></feFlood><feMorphology operator="erode" radius="1" in="SourceAlpha" result="erode"></feMorphology><feComposite operator="in" in="flood-1" in2="erode" result="comp1"></feComposite><feConvolveMatrix order="0,0" divisor="1" in="comp1" result="convolve" kernelMatrix=""></feConvolveMatrix><feOffset dx="0" dy="0" in="convolve" result="extrude"></feOffset><feComposite operator="in" in="flood-1" in2="extrude" result="comp-extrude"></feComposite><feFlood flood-color="#dce4eb" result="flood-2"></feFlood><feComposite operator="in" in="flood-2" in2="SourceAlpha" result="comp2"></feComposite><feMorphology operator="dilate" radius="1" in="comp2" result="dilate"></feMorphology><feOffset dx="0" dy="0" in="dilate" result="offset"></feOffset><feGaussianBlur in="offset" stdDeviation="5.8" result="blur"></feGaussianBlur><feComponentTransfer in="blur" result="shadow"><feFuncA type="linear" slope="0.8" intercept="-0.2"></feFuncA></feComponentTransfer><feMerge><feMergeNode in="shadow"></feMergeNode><feMergeNode in="comp-extrude"></feMergeNode><feMergeNode in="SourceGraphic"></feMergeNode></feMerge></filter></defs><g filter="url(#editing-extrude-glow)"><g transform="translate(97.60000610351562, 110.18624877929688)"><path d="M19.84 0.96L19.84 0.96L19.84 0.96Q14.56 0.96 9.28-1.92L9.28-1.92L9.28-1.92Q7.52-2.80 6.88-2.80L6.88-2.80L6.88-2.80Q5.68-2.80 5.60-1.12L5.60-1.12L5.52 0L4 0L4-13.36L5.44-13.36L5.44-13.36Q6.16-7.20 10.04-4.28L10.04-4.28L10.04-4.28Q13.92-1.36 19.24-1.36L19.24-1.36L19.24-1.36Q24.56-1.36 27.32-4.24L27.32-4.24L27.32-4.24Q30.08-7.12 30.08-11.04L30.08-11.04L30.08-11.04Q30.08-17.28 22.88-20.48L22.88-20.48L13.36-24.72L13.36-24.72Q9.04-26.64 6.88-29.96L6.88-29.96L6.88-29.96Q4.72-33.28 4.72-37.12L4.72-37.12L4.72-37.12Q4.72-42.96 8.64-47.16L8.64-47.16L8.64-47.16Q12.56-51.36 19.92-51.36L19.92-51.36L19.92-51.36Q24.24-51.36 28.80-48.48L28.80-48.48L28.80-48.48Q30.32-47.60 30.88-47.60L30.88-47.60L30.88-47.60Q31.92-47.60 32-49.28L32-49.28L32.08-50.88L33.60-50.88L33.60-37.04L32.16-37.04L32.16-37.04Q31.52-43.20 28.20-46.12L28.20-46.12L28.20-46.12Q24.88-49.04 20.12-49.04L20.12-49.04L20.12-49.04Q15.36-49.04 12.76-46.44L12.76-46.44L12.76-46.44Q10.16-43.84 10.16-40.52L10.16-40.52L10.16-40.52Q10.16-37.20 11.96-34.56L11.96-34.56L11.96-34.56Q13.76-31.92 17.28-30.40L17.28-30.40L26.88-26.16L26.88-26.16Q31.68-24 34.12-20.52L34.12-20.52L34.12-20.52Q36.56-17.04 36.56-13.04L36.56-13.04L36.56-13.04Q36.56-7.36 32-3.20L32-3.20L32-3.20Q27.44 0.96 19.84 0.96ZM47.44-3.92L47.44-3.92L47.44-3.92Q42.96-8.80 42.96-17.28L42.96-17.28L42.96-17.28Q42.96-25.76 47.44-30.64L47.44-30.64L47.44-30.64Q51.92-35.52 59.12-35.52L59.12-35.52L59.12-35.52Q66.32-35.52 70.84-30.64L70.84-30.64L70.84-30.64Q75.36-25.76 75.36-17.28L75.36-17.28L75.36-17.28Q75.36-8.80 70.84-3.92L70.84-3.92L70.84-3.92Q66.32 0.96 59.12 0.96L59.12 0.96L59.12 0.96Q51.92 0.96 47.44-3.92ZM51.92-29.32L51.92-29.32L51.92-29.32Q49.04-24.88 49.04-17.28L49.04-17.28L49.04-17.28Q49.04-9.68 51.92-5.24L51.92-5.24L51.92-5.24Q54.80-0.80 59.12-0.80L59.12-0.80L59.12-0.80Q63.44-0.80 66.36-5.24L66.36-5.24L66.36-5.24Q69.28-9.68 69.28-17.28L69.28-17.28L69.28-17.28Q69.28-24.88 66.36-29.32L66.36-29.32L66.36-29.32Q63.44-33.76 59.12-33.76L59.12-33.76L59.12-33.76Q54.80-33.76 51.92-29.32ZM114.72-23.36L114.72-23.36L114.72-2.40L114.72-2.40Q114.72-1.44 115.84-1.44L115.84-1.44L119.60-1.44L119.60 0L105.20 0L105.20-1.44L107.84-1.44L107.84-1.44Q108.96-1.44 108.96-2.40L108.96-2.40L108.96-24.40L108.96-24.40Q108.96-28.48 107.16-30.44L107.16-30.44L107.16-30.44Q105.36-32.40 102.40-32.40L102.40-32.40L102.40-32.40Q98.24-32.40 95.52-27.48L95.52-27.48L95.52-27.48Q92.80-22.56 92.80-13.36L92.80-13.36L92.80-2.56L92.80-2.56Q92.80-1.44 93.92-1.44L93.92-1.44L96.56-1.44L96.56 0L82.16 0L82.16-1.44L85.92-1.44L85.92-1.44Q87.04-1.44 87.04-2.40L87.04-2.40L87.04-32L87.04-32Q87.04-33.12 85.92-33.12L85.92-33.12L82.16-33.12L82.16-34.56L86.08-34.56L86.08-34.56Q90.88-34.56 92.80-35.04L92.80-35.04L92.80-24.16L92.80-24.16Q95.52-35.52 104.80-35.52L104.80-35.52L104.80-35.52Q108.96-35.52 111.84-32.52L111.84-32.52L111.84-32.52Q114.72-29.52 114.72-23.36ZM156.64-33.60L156.64-33.60L156-33.68L156-33.68Q155.28-38.64 152.40-38.64L152.40-38.64L152.40-38.64Q150.96-38.64 149.76-37.12L149.76-37.12L149.76-37.12Q148.56-35.60 148.32-33.12L148.32-33.12L148.32-33.12Q152.64-29.84 152.64-24L152.64-24L152.64-24Q152.64-18.16 149.24-15L149.24-15L149.24-15Q145.84-11.84 140.40-11.84L140.40-11.84L133.28-11.84L133.28-11.84Q131.28-11.84 130.20-10.72L130.20-10.72L130.20-10.72Q129.12-9.60 129.12-8.08L129.12-8.08L129.12-8.08Q129.12-6.56 130.20-5.44L130.20-5.44L130.20-5.44Q131.28-4.32 133.28-4.32L133.28-4.32L146.64-4.32L146.64-4.32Q151.44-4.32 153.88-2.12L153.88-2.12L153.88-2.12Q156.32 0.08 156.32 3.44L156.32 3.44L156.32 3.44Q156.32 8.80 151.28 13.52L151.28 13.52L151.28 13.52Q146.24 18.24 138.72 18.24L138.72 18.24L138.72 18.24Q132.96 18.24 129.36 15.52L129.36 15.52L129.36 15.52Q125.76 12.80 125.76 8.64L125.76 8.64L125.76 8.64Q125.76 4.48 130.16 0.64L130.16 0.64L130.16 0.64Q128.08 0.08 126.84-1.72L126.84-1.72L126.84-1.72Q125.60-3.52 125.60-6.16L125.60-6.16L125.60-6.16Q125.60-8.80 127.52-10.92L127.52-10.92L127.52-10.92Q129.44-13.04 133.28-13.04L133.28-13.04L134.48-13.04L134.48-13.04Q128.24-15.92 128.24-23.68L128.24-23.68L128.24-23.68Q128.24-29.20 131.60-32.36L131.60-32.36L131.60-32.36Q134.96-35.52 140.40-35.52L140.40-35.52L140.40-35.52Q144-35.52 146.72-34.08L146.72-34.08L146.72-34.08Q147.28-37.28 149-39.36L149-39.36L149-39.36Q150.72-41.44 153.56-41.44L153.56-41.44L153.56-41.44Q156.40-41.44 158.28-39.92L158.28-39.92L158.28-39.92Q160.16-38.40 160.16-36.64L160.16-36.64L160.16-36.64Q160.16-33.60 156.64-33.60ZM146.64 0.96L146.64 0.96L132.64 0.96L132.64 0.96Q130.08 3.92 130.08 7.68L130.08 7.68L130.08 7.68Q130.08 11.44 132.32 13.88L132.32 13.88L132.32 13.88Q134.56 16.32 139.56 16.32L139.56 16.32L139.56 16.32Q144.56 16.32 148.64 12.80L148.64 12.80L148.64 12.80Q152.72 9.28 152.72 5.52L152.72 5.52L152.72 5.52Q152.72 3.52 151.20 2.24L151.20 2.24L151.20 2.24Q149.68 0.96 146.64 0.96ZM135.76-31.04L135.76-31.04L135.76-31.04Q133.92-28.32 133.92-23.68L133.92-23.68L133.92-23.68Q133.92-19.04 135.76-16.32L135.76-16.32L135.76-16.32Q137.60-13.60 140.40-13.60L140.40-13.60L140.40-13.60Q143.20-13.60 145.08-16.32L145.08-16.32L145.08-16.32Q146.96-19.04 146.96-23.68L146.96-23.68L146.96-23.68Q146.96-28.32 145.08-31.04L145.08-31.04L145.08-31.04Q143.20-33.76 140.40-33.76L140.40-33.76L140.40-33.76Q137.60-33.76 135.76-31.04ZM182.24 0L161.52 0L161.52-1.44L165.28-1.44L165.28-1.44Q166.40-1.44 166.40-2.40L166.40-2.40L166.40-48L166.40-48Q166.40-48.96 165.28-48.96L165.28-48.96L161.52-48.96L161.52-50.40L180.24-50.40L180.24-50.40Q186.24-50.40 190.52-47.12L190.52-47.12L190.52-47.12Q194.80-43.84 194.80-38.64L194.80-38.64L194.80-38.64Q194.80-34.64 192.68-31.64L192.68-31.64L192.68-31.64Q190.56-28.64 187.04-27.12L187.04-27.12L187.04-27.12Q192.08-26 195.24-22.56L195.24-22.56L195.24-22.56Q198.40-19.12 198.40-13.40L198.40-13.40L198.40-13.40Q198.40-7.68 193.68-3.84L193.68-3.84L193.68-3.84Q188.96 0 182.24 0L182.24 0ZM181.84-25.68L181.84-25.68L172.96-25.68L172.96-2.24L181.84-2.24L181.84-2.24Q186.64-2.24 189.32-5.76L189.32-5.76L189.32-5.76Q192-9.28 192-14L192-14L192-14Q192-18.72 189.32-22.20L189.32-22.20L189.32-22.20Q186.64-25.68 181.84-25.68ZM178.56-48.16L178.56-48.16L172.96-48.16L172.96-27.68L179.04-27.68L179.04-27.68Q183.76-27.68 186.08-30.88L186.08-30.88L186.08-30.88Q188.40-34.08 188.40-38.36L188.40-38.36L188.40-38.36Q188.40-42.64 186-45.40L186-45.40L186-45.40Q183.60-48.16 178.56-48.16ZM222.80-33.12L222.80-34.56L232.96-34.56L232.96-33.12L230-33.12L230-33.12Q229.28-33.12 228.88-32L228.88-32L215.04 5.04L215.04 5.04Q214.80 5.76 214.24 7.20L214.24 7.20L213.36 9.36L213.36 9.36Q213.12 10.08 212.64 11.32L212.64 11.32L212.64 11.32Q212.16 12.56 211.84 13.24L211.84 13.24L211.84 13.24Q211.52 13.92 211.04 14.88L211.04 14.88L211.04 14.88Q210.48 16.08 209.44 17.16L209.44 17.16L209.44 17.16Q208.40 18.24 207.28 18.24L207.28 18.24L207.28 18.24Q206.16 18.24 204.92 16.84L204.92 16.84L204.92 16.84Q203.68 15.44 203.44 13.84L203.44 13.84L203.44 13.84Q210.72 10.72 213.36 3.44L213.36 3.44L214.72-0.24L202.88-32L202.88-32Q202.48-33.12 201.76-33.12L201.76-33.12L198.80-33.12L198.80-34.56L212.40-34.56L212.40-33.12L208.40-33.12L217.60-7.84L226.88-33.12L222.80-33.12ZM255.76-35.52L255.76-35.52L255.76-35.52Q258.88-35.52 260.84-32.88L260.84-32.88L260.84-32.88Q262.80-30.24 262.80-26.24L262.80-26.24L262.80-26.24Q262.80-22.24 259.52-22.24L259.52-22.24L259.52-22.24Q257.60-22.24 256.40-23.44L256.40-23.44L256.40-23.44Q257.44-25.76 257.44-28.16L257.44-28.16L257.44-28.16Q257.44-32.40 253.92-32.40L253.92-32.40L253.92-32.40Q250.96-32.40 248.68-27.48L248.68-27.48L248.68-27.48Q246.40-22.56 246.40-13.20L246.40-13.20L246.40-2.56L246.40-2.56Q246.40-1.44 247.52-1.44L247.52-1.44L252.88-1.44L252.88 0L235.76 0L235.76-1.44L239.52-1.44L239.52-1.44Q240.64-1.44 240.64-2.56L240.64-2.56L240.64-32L240.64-32Q240.64-33.12 239.52-33.12L239.52-33.12L235.76-33.12L235.76-34.56L239.68-34.56L239.68-34.56Q244.48-34.56 246.40-35.04L246.40-35.04L246.40-24.80L246.40-24.80Q247.68-30.32 250.16-32.92L250.16-32.92L250.16-32.92Q252.64-35.52 255.76-35.52ZM290.16 0.48L290.16 0.48L290.16-6.40L290.16-6.40Q285.68 0.96 279.56 0.96L279.56 0.96L279.56 0.96Q273.44 0.96 269.92-3.92L269.92-3.92L269.92-3.92Q266.40-8.80 266.40-17.20L266.40-17.20L266.40-17.20Q266.40-25.60 270.88-30.56L270.88-30.56L270.88-30.56Q275.36-35.52 282.16-35.52L282.16-35.52L282.16-35.52Q286.56-35.52 290.16-33.36L290.16-33.36L290.16-49.28L290.16-49.28Q290.16-50.40 289.04-50.40L289.04-50.40L285.28-50.40L285.28-51.84L289.20-51.84L289.20-51.84Q294-51.84 295.92-52.32L295.92-52.32L295.92-2.56L295.92-2.56Q295.92-1.44 297.04-1.44L297.04-1.44L300.80-1.44L300.80 0L296.88 0L296.88 0Q292.08 0 290.16 0.48ZM282.36-33.12L282.36-33.12L282.36-33.12Q278.24-33.12 275.36-29L275.36-29L275.36-29Q272.48-24.88 272.48-17.52L272.48-17.52L272.48-17.52Q272.48-10.16 274.84-6.12L274.84-6.12L274.84-6.12Q277.20-2.08 280.80-2.08L280.80-2.08L280.80-2.08Q286-2.08 290.16-9.36L290.16-9.36L290.16-30.88L290.16-30.88Q286.48-33.12 282.36-33.12Z" fill="#85a2b6"></path></g></g><style>text {
  font-size: 64px;
  font-family: Arial Black;
  dominant-baseline: central;
  text-anchor: middle;
}</style></svg>