<svg width="530.91376953125px" height="143.611279296875px" xmlns="http://www.w3.org/2000/svg" viewBox="-15.456884765624977 3.1943603515624943 530.91376953125 143.611279296875" style="background:#596886" preserveAspectRatio="xMidYMid"><defs><filter id="editing-hover" x="-100%" y="-100%" width="300%" height="300%"><feFlood flood-color="#052b4a" result="flood"></feFlood><feComposite operator="in" in2="SourceAlpha" in="flood" result="shadow"></feComposite><feOffset dx="-4" dy="-4" in="SourceGraphic" result="offset-1"></feOffset><feOffset dx="4" dy="4" in="shadow" result="offset-2"></feOffset><feMerge><feMergeNode in="offset-2"></feMergeNode><feMergeNode in="offset-1"></feMergeNode></feMerge></filter></defs><g filter="url(#editing-hover)"><g transform="translate(62.585941165685654, 111.27156066894531)"><path d="M31.75-36.04L31.75-36.04L31.75-36.04Q32.92-38.38 32.92-40.56L32.92-40.56L32.92-40.56Q32.92-42.74 32.68-43.95L32.68-43.95L32.68-43.95Q32.45-45.16 31.90-46.10L31.90-46.10L31.90-46.10Q30.73-48.13 28.39-48.13L28.39-48.13L28.39-48.13Q25.51-48.13 23.17-46.02L23.17-46.02L23.17-46.02Q20.67-43.84 20.67-40.40L20.67-40.40L20.67-40.40Q20.67-38.22 22.19-36.54L22.19-36.54L22.19-36.54Q23.71-34.87 26.05-33.31L26.05-33.31L26.05-33.31Q28.39-31.75 31.04-30.19L31.04-30.19L31.04-30.19Q33.70-28.63 36.04-26.75L36.04-26.75L36.04-26.75Q41.42-22.46 41.42-16.69L41.42-16.69L41.42-16.69Q41.42-12.79 39.35-9.48L39.35-9.48L39.35-9.48Q37.28-6.16 33.85-3.74L33.85-3.74L33.85-3.74Q26.36 1.56 16.46 1.56L16.46 1.56L16.46 1.56Q8.42 1.56 4.29-1.05L4.29-1.05L4.29-1.05Q0.16-3.67 0.16-7.64L0.16-7.64L0.16-7.64Q0.16-14.74 5.69-16.54L5.69-16.54L5.69-16.54Q7.25-17.08 9.63-17.08L9.63-17.08L9.63-17.08Q12.01-17.08 14.74-16.07L14.74-16.07L14.74-16.07Q13.49-12.87 13.49-9.98L13.49-9.98L13.49-9.98Q13.49-3.74 17.94-3.74L17.94-3.74L17.94-3.74Q20.83-3.74 23.20-5.85L23.20-5.85L23.20-5.85Q25.58-7.96 25.58-10.34L25.58-10.34L25.58-10.34Q25.58-12.71 24.06-14.43L24.06-14.43L24.06-14.43Q22.54-16.15 20.28-17.51L20.28-17.51L20.28-17.51Q18.02-18.88 15.40-20.20L15.40-20.20L15.40-20.20Q12.79-21.53 10.53-23.40L10.53-23.40L10.53-23.40Q5.23-27.69 5.23-34.55L5.23-34.55L5.23-34.55Q5.23-39 7.41-42.47L7.41-42.47L7.41-42.47Q9.59-45.94 13.10-48.28L13.10-48.28L13.10-48.28Q20.12-53.04 28.74-53.04L28.74-53.04L28.74-53.04Q37.36-53.04 41.53-50.47L41.53-50.47L41.53-50.47Q45.71-47.89 45.71-43.52L45.71-43.52L45.71-43.52Q45.71-39.70 42.74-37.28L42.74-37.28L42.74-37.28Q40.17-35.26 37.05-35.26L37.05-35.26L37.05-35.26Q33.93-35.26 31.75-36.04ZM64.35 1.56L64.35 1.56L64.35 1.56Q47.19 1.56 47.19-14.59L47.19-14.59L47.19-14.59Q47.19-26.05 53.51-33.46L53.51-33.46L53.51-33.46Q60.22-41.34 71.84-41.34L71.84-41.34L71.84-41.34Q80.26-41.34 84.55-37.44L84.55-37.44L84.55-37.44Q88.84-33.54 88.84-25.35L88.84-25.35L88.84-25.35Q88.84-12.87 82.13-5.62L82.13-5.62L82.13-5.62Q75.58 1.56 64.35 1.56ZM66.38-32.37L66.38-32.37L66.38-32.37Q65.44-30.26 64.70-27.11L64.70-27.11L64.70-27.11Q63.96-23.95 63.02-18.95L63.02-18.95L63.02-18.95Q62.09-13.96 62.09-7.80L62.09-7.80L62.09-7.80Q62.09-5.77 62.75-4.45L62.75-4.45L62.75-4.45Q63.41-3.12 65.21-3.12L65.21-3.12L65.21-3.12Q67.00-3.12 68.13-3.98L68.13-3.98L68.13-3.98Q69.26-4.84 70.12-6.86L70.12-6.86L70.12-6.86Q71.68-10.45 72.93-17.12L72.93-17.12L72.93-17.12Q74.18-23.79 74.30-26.68L74.30-26.68L74.30-26.68Q74.41-29.56 74.41-31.71L74.41-31.71L74.41-31.71Q74.41-33.85 73.79-35.26L73.79-35.26L73.79-35.26Q73.16-36.66 71.41-36.66L71.41-36.66L71.41-36.66Q69.65-36.66 68.48-35.57L68.48-35.57L68.48-35.57Q67.31-34.48 66.38-32.37ZM126.44 1.56L126.44 1.56L126.44 1.56Q117 1.56 117-5.77L117-5.77L117-5.77Q117.08-7.80 117.70-11.23L117.70-11.23L119.11-18.41L119.11-18.41Q121.21-28.55 121.21-30.81L121.21-30.81L121.21-30.81Q121.21-35.33 118.56-35.33L118.56-35.33L118.56-35.33Q114.11-35.33 111.77-23.71L111.77-23.71L107.17 0L91.49 1.56L99.61-39.86L112.40-41.34L111.15-33.70L111.15-33.70Q114.82-41.34 126.05-41.34L126.05-41.34L126.05-41.34Q131.51-41.34 133.81-39.04L133.81-39.04L133.81-39.04Q136.11-36.74 136.11-31.59L136.11-31.59L136.11-31.59Q136.11-26.75 133.61-15.44L133.61-15.44L133.61-15.44Q132.44-10.37 132.44-8.46L132.44-8.46L132.44-8.46Q132.44-6.55 133.50-5.46L133.50-5.46L133.50-5.46Q134.55-4.37 136.11-4.21L136.11-4.21L136.11-4.21Q135.33-1.56 132.64 0L132.64 0L132.64 0Q129.95 1.56 126.44 1.56ZM147.89-32.60L147.89-32.60L147.89-32.60Q150.54-36.35 154.56-38.84L154.56-38.84L154.56-38.84Q158.57-41.34 163.49-41.34L163.49-41.34L163.49-41.34Q168.40-41.34 170.74-39.78L170.74-39.78L186.03-41.34L180.73-11.39L180.73-11.39Q178.00 3.90 172.22 9.91L172.22 9.91L172.22 9.91Q166.69 15.60 155.92 15.60L155.92 15.60L155.92 15.60Q147.73 15.60 143.05 13.03L143.05 13.03L143.05 13.03Q138.37 10.45 138.37 6.16L138.37 6.16L138.37 6.16Q138.37 2.96 140.79 1.13L140.79 1.13L140.79 1.13Q143.21-0.70 146.95-0.70L146.95-0.70L146.95-0.70Q150.23-0.70 152.72 0.78L152.72 0.78L152.72 0.78Q154.21 1.56 154.91 2.65L154.91 2.65L154.91 2.65Q153.11 4.21 153.11 6.79L153.11 6.79L153.11 6.79Q153.11 10.14 156.23 10.14L156.23 10.14L156.23 10.14Q161.46 10.14 164.42-2.18L164.42-2.18L164.42-2.18Q165.28-5.54 165.98-8.89L165.98-8.89L165.98-8.89Q162.47-4.60 154.52-4.60L154.52-4.60L154.52-4.60Q148.98-4.60 145.78-7.25L145.78-7.25L145.78-7.25Q142.58-9.91 142.58-16.15L142.58-16.15L142.58-16.15Q142.58-20.05 143.91-24.45L143.91-24.45L143.91-24.45Q145.24-28.86 147.89-32.60ZM158.03-15.91L158.03-15.91L158.03-15.91Q158.03-10.61 160.76-10.61L160.76-10.61L160.76-10.61Q162.63-10.61 164.42-12.64L164.42-12.64L164.42-12.64Q165.83-14.27 166.37-16.69L166.37-16.69L170.35-36.74L170.35-36.74Q169.96-36.82 169.57-36.97L169.57-36.97L169.57-36.97Q168.79-37.28 167.78-37.28L167.78-37.28L167.78-37.28Q163.02-37.28 160.21-29.48L160.21-29.48L160.21-29.48Q158.03-23.40 158.03-15.91ZM188.29-0.39L188.29-0.39L198.12-51.48L198.12-51.48Q207.32-52.26 213.25-52.26L213.25-52.26L213.25-52.26Q219.18-52.26 223.00-51.75L223.00-51.75L223.00-51.75Q226.82-51.25 229.40-49.92L229.40-49.92L229.40-49.92Q234.55-47.42 234.55-40.56L234.55-40.56L234.55-40.56Q234.55-36.58 231.11-33.23L231.11-33.23L231.11-33.23Q227.92-30.19 224.41-29.48L224.41-29.48L224.41-29.48Q228.15-28.86 230.80-26.05L230.80-26.05L230.80-26.05Q233.61-23.09 233.61-18.49L233.61-18.49L233.61-18.49Q233.61-9.59 226.98-4.41L226.98-4.41L226.98-4.41Q220.35 0.78 207.32 0.78L207.32 0.78L207.32 0.78Q198.35 0.78 188.29-0.39ZM209.51-25.12L205.61-4.91L205.61-4.91Q206.31-4.84 206.47-4.84L206.47-4.84L207.17-4.84L207.17-4.84Q213.56-4.84 216.29-9.05L216.29-9.05L216.29-9.05Q218.32-12.32 218.32-18.33L218.32-18.33L218.32-18.33Q218.32-21.53 216.25-23.24L216.25-23.24L216.25-23.24Q214.19-24.96 209.51-25.12L209.51-25.12ZM221.36-40.48L221.36-40.48L221.36-40.48Q221.36-46.96 215.12-46.96L215.12-46.96L214.42-46.96L214.42-46.96Q214.11-46.96 213.64-46.88L213.64-46.88L210.52-30.42L211.30-30.42L211.30-30.42Q221.36-30.65 221.36-40.48ZM263.56-8.81L263.56-8.81L263.56-8.81Q259.51-4.60 252.10-4.60L252.10-4.60L252.10-4.60Q242.81-4.60 240.86-11.39L240.86-11.39L240.86-11.39Q240.24-13.42 240.24-15.68L240.24-15.68L240.24-15.68Q240.24-17.94 240.71-20.28L240.71-20.28L244.37-39.78L260.21-41.34L255.92-18.64L255.92-18.64Q255.76-17.63 255.53-16.54L255.53-16.54L255.53-16.54Q255.29-15.44 255.29-14.31L255.29-14.31L255.29-14.31Q255.29-13.18 255.68-12.44L255.68-12.44L255.68-12.44Q256.07-11.70 256.62-11.23L256.62-11.23L256.62-11.23Q257.56-10.61 259.23-10.61L259.23-10.61L259.23-10.61Q260.91-10.61 262.35-12.64L262.35-12.64L262.35-12.64Q263.80-14.66 264.50-18.17L264.50-18.17L268.79-39.78L284.15-41.34L278.30-10.69L278.30-10.69Q275.42 4.29 269.49 10.22L269.49 10.22L269.49 10.22Q266.45 13.26 262.51 14.47L262.51 14.47L262.51 14.47Q258.57 15.68 253.50 15.68L253.50 15.68L253.50 15.68Q245.31 15.68 240.63 13.10L240.63 13.10L240.63 13.10Q235.95 10.53 235.95 6.24L235.95 6.24L235.95 6.24Q235.95 3.04 238.37 1.21L238.37 1.21L238.37 1.21Q240.79-0.62 244.53-0.62L244.53-0.62L244.53-0.62Q247.81-0.62 250.30 0.78L250.30 0.78L250.30 0.78Q251.78 1.64 252.49 2.73L252.49 2.73L252.49 2.73Q250.69 4.29 250.69 6.86L250.69 6.86L250.69 6.86Q250.69 10.30 253.81 10.30L253.81 10.30L253.81 10.30Q258.96 10.30 261.92-1.56L261.92-1.56L261.92-1.56Q262.78-5.07 263.56-8.81ZM311.38-21.92L311.38-21.92L311.38-21.92Q314.18-26.91 314.18-31.98L314.18-31.98L314.18-31.98Q314.18-35.33 311.77-35.33L311.77-35.33L311.77-35.33Q309.89-35.33 307.94-32.14L307.94-32.14L307.94-32.14Q305.92-28.94 305.29-24.80L305.29-24.80L301.24 0L285.09 1.56L293.05-39.78L305.92-41.34L304.51-33.46L304.51-33.46Q308.33-41.34 316.91-41.34L316.91-41.34L316.91-41.34Q321.44-41.34 323.90-39L323.90-39L323.90-39Q326.35-36.66 326.35-31.86L326.35-31.86L326.35-31.86Q326.35-27.07 323.19-24.02L323.19-24.02L323.19-24.02Q320.03-20.98 314.65-20.98L314.65-20.98L314.65-20.98Q312.31-20.98 311.38-21.92ZM352.17-41.34L352.17-41.34L352.17-41.34Q354.98-41.34 357.16-40.72L357.16-40.72L357.16-40.72Q357.24-41.03 357.40-41.89L357.40-41.89L357.79-44.30L357.79-44.30Q358.10-45.86 358.57-48.44L358.57-48.44L359.81-54.60L375.34-56.16L366.68-10.92L366.68-10.92Q366.60-10.45 366.60-9.67L366.60-9.67L366.60-8.42L366.60-8.42Q366.60-6.71 367.46-5.42L367.46-5.42L367.46-5.42Q368.32-4.13 369.72-4.13L369.72-4.13L369.72-4.13Q368.16-0.47 363.40 1.09L363.40 1.09L363.40 1.09Q361.76 1.56 359.46 1.56L359.46 1.56L359.46 1.56Q357.16 1.56 355.06 0.35L355.06 0.35L355.06 0.35Q352.95-0.86 352.33-2.89L352.33-2.89L352.33-2.89Q351.08-0.86 348.58 0.35L348.58 0.35L348.58 0.35Q346.09 1.56 342.46 1.56L342.46 1.56L342.46 1.56Q338.83 1.56 335.83 0.62L335.83 0.62L335.83 0.62Q332.83-0.31 330.95-2.34L330.95-2.34L330.95-2.34Q327.52-6.32 327.52-15.37L327.52-15.37L327.52-15.37Q327.52-27.07 334.39-34.16L334.39-34.16L334.39-34.16Q341.25-41.34 352.17-41.34ZM351.62-36.66L351.62-36.66L351.62-36.66Q348.74-36.66 347.18-33.54L347.18-33.54L347.18-33.54Q345.62-30.42 344.02-22.70L344.02-22.70L344.02-22.70Q342.42-14.98 342.42-8.03L342.42-8.03L342.42-8.03Q342.42-3.28 345.23-3.28L345.23-3.28L345.23-3.28Q347.72-3.28 349.48-5.77L349.48-5.77L349.48-5.77Q351.23-8.27 351.94-12.40L351.94-12.40L356.15-35.26L356.15-35.26Q354.51-36.66 351.62-36.66Z" fill="#ffd5af"></path></g></g><style>text {
  font-size: 64px;
  font-family: Arial Black;
  dominant-baseline: central;
  text-anchor: middle;
}</style></svg>